<mxfile host="app.diagrams.net" modified="2022-10-27T14:04:42.312Z" agent="5.0 (X11; Linux x86_64) AppleWebKit/537.36 (KHTML, like Gecko) Chrome/107.0.0.0 Safari/537.36" etag="rSCPuy0cTY5arLDr4V_4" version="20.3.3" type="github">
  <diagram id="A1IVkFVI3k7iJlv4y0Dh" name="第 1 页">
    <mxGraphModel dx="1422" dy="826" grid="1" gridSize="10" guides="1" tooltips="1" connect="1" arrows="1" fold="1" page="1" pageScale="1" pageWidth="827" pageHeight="1169" math="0" shadow="0">
      <root>
        <mxCell id="0" />
        <mxCell id="1" parent="0" />
        <mxCell id="qFUdo42KV_erRPcCLVei-1" value="mq_msg" style="swimlane;fontStyle=0;childLayout=stackLayout;horizontal=1;startSize=26;fillColor=none;horizontalStack=0;resizeParent=1;resizeParentMax=0;resizeLast=0;collapsible=1;marginBottom=0;" parent="1" vertex="1">
          <mxGeometry x="620" y="70" width="140" height="104" as="geometry">
            <mxRectangle x="280" y="280" width="90" height="30" as="alternateBounds" />
          </mxGeometry>
        </mxCell>
        <mxCell id="qFUdo42KV_erRPcCLVei-2" value="id" style="text;strokeColor=none;fillColor=none;align=left;verticalAlign=top;spacingLeft=4;spacingRight=4;overflow=hidden;rotatable=0;points=[[0,0.5],[1,0.5]];portConstraint=eastwest;" parent="qFUdo42KV_erRPcCLVei-1" vertex="1">
          <mxGeometry y="26" width="140" height="26" as="geometry" />
        </mxCell>
        <mxCell id="qFUdo42KV_erRPcCLVei-3" value="update time" style="text;strokeColor=none;fillColor=none;align=left;verticalAlign=top;spacingLeft=4;spacingRight=4;overflow=hidden;rotatable=0;points=[[0,0.5],[1,0.5]];portConstraint=eastwest;" parent="qFUdo42KV_erRPcCLVei-1" vertex="1">
          <mxGeometry y="52" width="140" height="26" as="geometry" />
        </mxCell>
        <mxCell id="qFUdo42KV_erRPcCLVei-4" value="ip" style="text;strokeColor=none;fillColor=none;align=left;verticalAlign=top;spacingLeft=4;spacingRight=4;overflow=hidden;rotatable=0;points=[[0,0.5],[1,0.5]];portConstraint=eastwest;" parent="qFUdo42KV_erRPcCLVei-1" vertex="1">
          <mxGeometry y="78" width="140" height="26" as="geometry" />
        </mxCell>
        <mxCell id="qFUdo42KV_erRPcCLVei-10" value="" style="edgeStyle=orthogonalEdgeStyle;rounded=0;orthogonalLoop=1;jettySize=auto;html=1;" parent="1" source="qFUdo42KV_erRPcCLVei-5" target="qFUdo42KV_erRPcCLVei-9" edge="1">
          <mxGeometry relative="1" as="geometry" />
        </mxCell>
        <mxCell id="qFUdo42KV_erRPcCLVei-5" value="读取Mq_msg 的信息" style="rounded=0;whiteSpace=wrap;html=1;" parent="1" vertex="1">
          <mxGeometry x="40" y="200" width="120" height="60" as="geometry" />
        </mxCell>
        <mxCell id="qFUdo42KV_erRPcCLVei-8" style="edgeStyle=orthogonalEdgeStyle;rounded=0;orthogonalLoop=1;jettySize=auto;html=1;" parent="1" source="qFUdo42KV_erRPcCLVei-7" target="qFUdo42KV_erRPcCLVei-5" edge="1">
          <mxGeometry relative="1" as="geometry" />
        </mxCell>
        <mxCell id="qFUdo42KV_erRPcCLVei-7" value="" style="strokeWidth=2;html=1;shape=mxgraph.flowchart.start_2;whiteSpace=wrap;" parent="1" vertex="1">
          <mxGeometry x="75" y="60" width="50" height="50" as="geometry" />
        </mxCell>
        <mxCell id="qFUdo42KV_erRPcCLVei-12" value="" style="edgeStyle=orthogonalEdgeStyle;rounded=0;orthogonalLoop=1;jettySize=auto;html=1;" parent="1" source="qFUdo42KV_erRPcCLVei-9" target="qFUdo42KV_erRPcCLVei-11" edge="1">
          <mxGeometry relative="1" as="geometry" />
        </mxCell>
        <mxCell id="qFUdo42KV_erRPcCLVei-16" value="" style="edgeStyle=orthogonalEdgeStyle;rounded=0;orthogonalLoop=1;jettySize=auto;html=1;" parent="1" source="qFUdo42KV_erRPcCLVei-9" target="qFUdo42KV_erRPcCLVei-15" edge="1">
          <mxGeometry relative="1" as="geometry" />
        </mxCell>
        <mxCell id="qFUdo42KV_erRPcCLVei-9" value="是否有符合条件数据master数据" style="rhombus;whiteSpace=wrap;html=1;rounded=0;" parent="1" vertex="1">
          <mxGeometry x="60" y="330" width="80" height="80" as="geometry" />
        </mxCell>
        <mxCell id="qFUdo42KV_erRPcCLVei-18" style="edgeStyle=orthogonalEdgeStyle;rounded=0;orthogonalLoop=1;jettySize=auto;html=1;entryX=0;entryY=0.5;entryDx=0;entryDy=0;entryPerimeter=0;" parent="1" source="qFUdo42KV_erRPcCLVei-11" target="qFUdo42KV_erRPcCLVei-17" edge="1">
          <mxGeometry relative="1" as="geometry" />
        </mxCell>
        <mxCell id="qFUdo42KV_erRPcCLVei-11" value="退出选主程序" style="whiteSpace=wrap;html=1;rounded=0;" parent="1" vertex="1">
          <mxGeometry x="40" y="500" width="120" height="60" as="geometry" />
        </mxCell>
        <mxCell id="qFUdo42KV_erRPcCLVei-19" style="edgeStyle=orthogonalEdgeStyle;rounded=0;orthogonalLoop=1;jettySize=auto;html=1;entryX=0.5;entryY=0.5;entryDx=0;entryDy=-15;entryPerimeter=0;" parent="1" source="qFUdo42KV_erRPcCLVei-15" target="qFUdo42KV_erRPcCLVei-17" edge="1">
          <mxGeometry relative="1" as="geometry" />
        </mxCell>
        <mxCell id="qFUdo42KV_erRPcCLVei-15" value="登记自己为master" style="whiteSpace=wrap;html=1;rounded=0;" parent="1" vertex="1">
          <mxGeometry x="230" y="340" width="120" height="60" as="geometry" />
        </mxCell>
        <mxCell id="qFUdo42KV_erRPcCLVei-17" value="" style="html=1;dashed=0;whitespace=wrap;shape=mxgraph.dfd.start" parent="1" vertex="1">
          <mxGeometry x="360" y="515" width="80" height="30" as="geometry" />
        </mxCell>
        <mxCell id="qFUdo42KV_erRPcCLVei-23" value="" style="edgeStyle=orthogonalEdgeStyle;rounded=0;orthogonalLoop=1;jettySize=auto;html=1;" parent="1" source="qFUdo42KV_erRPcCLVei-21" target="qFUdo42KV_erRPcCLVei-22" edge="1">
          <mxGeometry relative="1" as="geometry" />
        </mxCell>
        <mxCell id="qFUdo42KV_erRPcCLVei-21" value="" style="html=1;dashed=0;whitespace=wrap;shape=mxgraph.dfd.start" parent="1" vertex="1">
          <mxGeometry x="250" y="680" width="80" height="30" as="geometry" />
        </mxCell>
        <mxCell id="j-rv734OtA0OHMe2fSV6-2" value="" style="edgeStyle=orthogonalEdgeStyle;rounded=0;orthogonalLoop=1;jettySize=auto;html=1;" edge="1" parent="1" source="qFUdo42KV_erRPcCLVei-22" target="j-rv734OtA0OHMe2fSV6-1">
          <mxGeometry relative="1" as="geometry" />
        </mxCell>
        <mxCell id="qFUdo42KV_erRPcCLVei-22" value="是否是主master" style="rhombus;whiteSpace=wrap;html=1;dashed=0;" parent="1" vertex="1">
          <mxGeometry x="250" y="745" width="80" height="80" as="geometry" />
        </mxCell>
        <mxCell id="qFUdo42KV_erRPcCLVei-29" value="" style="edgeStyle=orthogonalEdgeStyle;rounded=0;orthogonalLoop=1;jettySize=auto;html=1;exitX=0.442;exitY=1;exitDx=0;exitDy=0;exitPerimeter=0;" parent="1" source="j-rv734OtA0OHMe2fSV6-3" target="qFUdo42KV_erRPcCLVei-28" edge="1">
          <mxGeometry relative="1" as="geometry">
            <mxPoint x="283" y="1240" as="sourcePoint" />
          </mxGeometry>
        </mxCell>
        <mxCell id="qFUdo42KV_erRPcCLVei-35" value="" style="edgeStyle=orthogonalEdgeStyle;rounded=0;orthogonalLoop=1;jettySize=auto;html=1;" parent="1" source="qFUdo42KV_erRPcCLVei-28" target="qFUdo42KV_erRPcCLVei-34" edge="1">
          <mxGeometry relative="1" as="geometry" />
        </mxCell>
        <mxCell id="qFUdo42KV_erRPcCLVei-28" value="制作已经完成的consumerGroup的对象" style="whiteSpace=wrap;html=1;dashed=0;" parent="1" vertex="1">
          <mxGeometry x="223" y="1280" width="120" height="60" as="geometry" />
        </mxCell>
        <mxCell id="qFUdo42KV_erRPcCLVei-37" value="" style="edgeStyle=orthogonalEdgeStyle;rounded=0;orthogonalLoop=1;jettySize=auto;html=1;" parent="1" source="qFUdo42KV_erRPcCLVei-34" target="qFUdo42KV_erRPcCLVei-36" edge="1">
          <mxGeometry relative="1" as="geometry" />
        </mxCell>
        <mxCell id="qFUdo42KV_erRPcCLVei-45" style="edgeStyle=orthogonalEdgeStyle;rounded=0;orthogonalLoop=1;jettySize=auto;html=1;entryX=1;entryY=0.5;entryDx=0;entryDy=0;" parent="1" source="qFUdo42KV_erRPcCLVei-34" target="qFUdo42KV_erRPcCLVei-40" edge="1">
          <mxGeometry relative="1" as="geometry">
            <Array as="points">
              <mxPoint x="483" y="1450" />
              <mxPoint x="483" y="1840" />
            </Array>
          </mxGeometry>
        </mxCell>
        <mxCell id="qFUdo42KV_erRPcCLVei-34" value="isMaster" style="rhombus;whiteSpace=wrap;html=1;dashed=0;" parent="1" vertex="1">
          <mxGeometry x="243" y="1410" width="80" height="80" as="geometry" />
        </mxCell>
        <mxCell id="qFUdo42KV_erRPcCLVei-39" value="" style="edgeStyle=orthogonalEdgeStyle;rounded=0;orthogonalLoop=1;jettySize=auto;html=1;" parent="1" source="qFUdo42KV_erRPcCLVei-36" target="qFUdo42KV_erRPcCLVei-38" edge="1">
          <mxGeometry relative="1" as="geometry" />
        </mxCell>
        <mxCell id="qFUdo42KV_erRPcCLVei-36" value="平衡消费偏移，更新进入DB" style="whiteSpace=wrap;html=1;dashed=0;" parent="1" vertex="1">
          <mxGeometry x="223" y="1530" width="120" height="60" as="geometry" />
        </mxCell>
        <mxCell id="qFUdo42KV_erRPcCLVei-41" value="" style="edgeStyle=orthogonalEdgeStyle;rounded=0;orthogonalLoop=1;jettySize=auto;html=1;" parent="1" source="qFUdo42KV_erRPcCLVei-38" target="qFUdo42KV_erRPcCLVei-40" edge="1">
          <mxGeometry relative="1" as="geometry" />
        </mxCell>
        <mxCell id="qFUdo42KV_erRPcCLVei-38" value="删除废弃consumer" style="whiteSpace=wrap;html=1;dashed=0;" parent="1" vertex="1">
          <mxGeometry x="223" y="1670" width="120" height="60" as="geometry" />
        </mxCell>
        <mxCell id="qFUdo42KV_erRPcCLVei-40" value="" style="ellipse;whiteSpace=wrap;html=1;dashed=0;" parent="1" vertex="1">
          <mxGeometry x="223" y="1810" width="120" height="60" as="geometry" />
        </mxCell>
        <mxCell id="qFUdo42KV_erRPcCLVei-43" value="" style="endArrow=classic;html=1;rounded=0;" parent="1" edge="1">
          <mxGeometry width="50" height="50" relative="1" as="geometry">
            <mxPoint x="283" y="1630" as="sourcePoint" />
            <mxPoint x="283" y="1390" as="targetPoint" />
            <Array as="points">
              <mxPoint x="193" y="1630" />
              <mxPoint x="193" y="1390" />
            </Array>
          </mxGeometry>
        </mxCell>
        <mxCell id="qFUdo42KV_erRPcCLVei-44" value="3 times" style="edgeLabel;html=1;align=center;verticalAlign=middle;resizable=0;points=[];" parent="qFUdo42KV_erRPcCLVei-43" vertex="1" connectable="0">
          <mxGeometry x="0.0571" y="3" relative="1" as="geometry">
            <mxPoint as="offset" />
          </mxGeometry>
        </mxCell>
        <mxCell id="j-rv734OtA0OHMe2fSV6-4" value="" style="edgeStyle=orthogonalEdgeStyle;rounded=0;orthogonalLoop=1;jettySize=auto;html=1;" edge="1" parent="1" source="j-rv734OtA0OHMe2fSV6-1" target="j-rv734OtA0OHMe2fSV6-3">
          <mxGeometry relative="1" as="geometry" />
        </mxCell>
        <mxCell id="j-rv734OtA0OHMe2fSV6-1" value="获取没有重平衡的所有consumerGroup和consumerEntity" style="whiteSpace=wrap;html=1;dashed=0;" vertex="1" parent="1">
          <mxGeometry x="230" y="862" width="120" height="60" as="geometry" />
        </mxCell>
        <mxCell id="j-rv734OtA0OHMe2fSV6-3" value="制作ConsumerGrouopQueue Map" style="whiteSpace=wrap;html=1;dashed=0;" vertex="1" parent="1">
          <mxGeometry x="230" y="1002" width="120" height="60" as="geometry" />
        </mxCell>
        <mxCell id="j-rv734OtA0OHMe2fSV6-5" value="ConsumerGroupQueueMap包括所有的消费者组，消费者Group,所有queue的偏移" style="whiteSpace=wrap;html=1;dashed=0;" vertex="1" parent="1">
          <mxGeometry x="470" y="1002" width="120" height="60" as="geometry" />
        </mxCell>
        <mxCell id="j-rv734OtA0OHMe2fSV6-8" value="" style="endArrow=none;dashed=1;html=1;dashPattern=1 3;strokeWidth=2;rounded=0;elbow=vertical;exitX=1;exitY=0.5;exitDx=0;exitDy=0;entryX=0;entryY=0.5;entryDx=0;entryDy=0;" edge="1" parent="1" source="j-rv734OtA0OHMe2fSV6-3" target="j-rv734OtA0OHMe2fSV6-5">
          <mxGeometry width="50" height="50" relative="1" as="geometry">
            <mxPoint x="370" y="1110" as="sourcePoint" />
            <mxPoint x="500" y="1090" as="targetPoint" />
          </mxGeometry>
        </mxCell>
      </root>
    </mxGraphModel>
  </diagram>
</mxfile>
